<svg xmlns="http://www.w3.org/2000/svg" viewBox="0 0 512 512">
  <defs>
    <linearGradient id="grad1" x1="0%" y1="0%" x2="100%" y2="100%">
      <stop offset="0%" style="stop-color:#60A5FA;stop-opacity:1" />
      <stop offset="100%" style="stop-color:#3B82F6;stop-opacity:1" />
    </linearGradient>
  </defs>
  <rect width="512" height="512" rx="100" fill="white" />
  <path d="M256 64C256 64 64 256 64 352C64 458.078 149.922 544 256 544C362.078 544 448 458.078 448 352C448 256 256 64 256 64Z" transform="translate(0 -32) scale(0.8 0.8) translate(64 64)" fill="url(#grad1)" />
  <path d="M256 120C256 120 120 280 120 360C120 440 180 480 256 480C332 480 392 440 392 360C392 280 256 120 256 120Z" fill="white" fill-opacity="0.3" transform="translate(0 20) scale(0.9) translate(28 0)" />
</svg>
